/* XPM */
static char *_203295c6d554c1af7e03474bd6cfdabzKkeVHWNBl37k7nF[] = {
/* columns rows colors chars-per-pixel */
"46 45 7 1 ",
"  c black",
". c #010101",
"X c #020202",
"o c gray1",
"O c #040404",
"+ c gray2",
"@ c #060606",
/* pixels */
"oooooooooooooooooooOoOooooooooooOOoOOOOOOOOOOO",
"OooooooooooooooOooooOoooooooooooOOOoOOOOOOOOOO",
"OoooooooooooOoooooooooooooooOOOOOOOOOOOOOOOOOO",
"ooooooooooOoOoooOooOoooooOoOoooOOOOOOOOOOOOOOO",
"oooooooooOoOooOoooooooooooOOOOOOOOOOOOOOOOOOOO",
"ooooooooOooooooooooooOooOOoOOOoOOOOOOOOOOOOOOO",
"oOooooooOooOoooooooooooOoOOoOOOOOOOOOOOOOOOOOO",
"OoooooooooooooooooOOOoOoOOOOOOOOOOOoOOOOOOOOOO",
"ooooooOooooooooooooooooOOOOOOOOOOOOOOOOOOOOOOO",
"OooooooooooooooooooOOOOOOOOOOOOOOOOOOOOOOOOOOO",
"OOooOoooooooooooooOoOOOOOOOOOOOOOOOOOOOOOOOOOO",
"OoooooOoooooOoooOOoOOOOOOOOOOOOOOOOOOOOOOOOOOO",
"OOooOooOooooooOOooOOOOOOOOOOOOOOOOOOOOOOOOOOOO",
"OooOOooooooooOoOooOOOOOOOOOOOOOOOOOOOOOOOOOOOO",
"OooooooooooooOOOOOOoOOOOOOOOOOOOOOOOOOOOOOOOOO",
"OooooooooooOooOOOOOOOOOOOOOOOOOOOOOOOOOOOOOOOO",
"OoooooooooooOOOOOOOOOOOOOOOOOOOOOOOOOOOOOOOOOO",
"ooooooOooooOoOOOOOOOOOOOOOOOOOOOOOOOOOOOOOOoOO",
"OooooOoOoOOOOOOOOOOOOOOOOOOOOOOOOOOOOOOOoOoOOO",
"oooOooOoOOOOOOOOOOOOOOOOOOOOOOOOOOOOOOOOOOOOoO",
"ooOOOOOOoOOOOOOOOOOOOOOOOOOOOOOOOOOOOOOOoOooOO",
"OooooOOoOOOOOOOOOOOOOOOOOOOOOOOOOOOOOOOOOoOOoo",
"OooOOOOOOOOOOOOOOOOOOOOOOOOOOOOOOOOOOOOOoOooOO",
"OOoOOOOOOOOOOOOOOOOOOOOOOOOOOOOOOOOOOOOOOoOOOO",
"OOoOOOOOOOOOOOOOOOOOOOOOOOOOOOOOOOoOOOOOooOOoO",
"OOoOOOOOOOOOOOOOOOOOOOOOOOOOoOoOOOOoOoOoOOOOOO",
"OOoOOOOOOOOOOOOOOOOOOOOOOOOOOOOOOOoOoOooOOOOOO",
"OOoOOOOOOOOOOOOOOOOOOOOOOOOOoOooOOOoooOOOoOOOO",
"OOoOOOOOOOOOOOOOOOOOOOOOOOOoOOOOOOoooOOOOOOOOO",
"OOoOOOOOOOOOOOOOOOOOOOOOOOOOoOoooooOOOOOOOOOOO",
"OOoOOOOOOOOOOOOOOOOOOOOOoOOoOoOOooOOOOOOOOOOOO",
"OooooooooooooooooooooooooooOoOooOOOOOOOOOOOOoo",
"OOoOooooooooooooooooooooooooooooOOOOOOOOOOOOOO",
"oooooooooooooooooooooooooooooooooooooooooooooo",
"oooooooooooooooooooooooooooooooooooooooooooooo",
"oooooooooooooooooooooooooooooooooooooooooooooo",
"oooooooooooooooooooooooooooooooooooooooooooooo",
"oooooooooooooooooooooooooooooooooooooooooooooo",
"oooooooooooooooooooooooooooooooooooooooooooooo",
"oooooooooooooooooooooooooooooooooooooooooooooo",
"oooooooooooooooooooooooooooooooooooooooooooooo",
"oooooooooooooooooooooooooooooooooooooooooooooo",
"oooooooooooooooooooooooooooooooooooooooooooooo",
"oooooooooooooooooooooooooooooooooooooooooooooo",
"oooooooooooooooooooooooooooooooooooooooooooooo"
};
