/* XPM */
static char *_e7db40098ec460bea9627b182f981d703Yqm78hzisApXpE[] = {
/* columns rows colors chars-per-pixel */
"10 10 5 1 ",
"  c None",
". c #1B1B1B",
"X c #F2741B",
"o c #FBC41B",
"O c #FFF21B",
/* pixels */
"  ......  ",
" .OOOOOO. ",
".OOoooooX.",
".OooOOooX.",
".OoOooXoX.",
".OoOooXoX.",
".OooXXooX.",
".OoooooXX.",
" .XXXXXX. ",
"  ......  "
};
